<?xml version="1.0" encoding="UTF-8" standalone="no"?>
<!DOCTYPE svg PUBLIC "-//W3C//DTD SVG 1.0//EN" "http://www.w3.org/TR/2001/REC-SVG-20010904/DTD/svg10.dtd">
<!-- Generated by Microsoft Visio 11.0, SVG Export, v1.0 actorsystem-useractors.svg User Actors -->
<svg xmlns="http://www.w3.org/2000/svg" xmlns:xlink="http://www.w3.org/1999/xlink" xmlns:ev="http://www.w3.org/2001/xml-events"
		xmlns:v="http://schemas.microsoft.com/visio/2003/SVGExtensions/" width="11.6929in" height="8.26772in"
		viewBox="0 0 841.89 595.276" xml:space="preserve" color-interpolation-filters="sRGB" class="st11">
	<v:documentProperties v:langID="1033" v:metric="true" v:viewMarkup="false">
		<v:userDefs>
			<v:ud v:nameU="msvNoAutoConnect" v:val="VT0(0):26"/>
		</v:userDefs>
	</v:documentProperties>

	<style type="text/css">
	<![CDATA[
		.st1 {fill:#d8d8d8;stroke:none;stroke-linecap:round;stroke-linejoin:round;stroke-width:0.25}
		.st2 {fill:#595959;font-family:Calibri;font-size:3em;font-weight:bold}
		.st3 {fill:#f2f2f2;stroke:none;stroke-linecap:round;stroke-linejoin:round;stroke-width:0.25}
		.st4 {visibility:visible}
		.st5 {fill:#cdcdcd;fill-opacity:0.5;stroke:#cdcdcd;stroke-linecap:round;stroke-linejoin:round;stroke-opacity:0.5;stroke-width:6}
		.st6 {fill:url(#grad30-12);stroke:#0386bf;stroke-linecap:round;stroke-linejoin:round;stroke-width:6}
		.st7 {stroke:#cdcdcd;stroke-linecap:round;stroke-linejoin:round;stroke-opacity:0.5;stroke-width:3}
		.st8 {stroke:#002060;stroke-linecap:round;stroke-linejoin:round;stroke-width:3}
		.st9 {fill:#00b050;stroke:#176655;stroke-linecap:round;stroke-linejoin:round;stroke-width:6}
		.st10 {fill:#ffffff;font-family:Calibri;font-size:1.66667em;font-weight:bold}
		.st11 {fill:none;fill-rule:evenodd;font-size:12px;overflow:visible;stroke-linecap:square;stroke-miterlimit:3}
	]]>
	</style>

	<defs id="Patterns_And_Gradients">
		<linearGradient id="grad30-12" v:fillPattern="30" v:foreground="#14a7f5" v:background="#31b0f7" x1="0" y1="1" x2="0" y2="0">
			<stop offset="0" style="stop-color:#14a7f5;stop-opacity:1"/>
			<stop offset="1" style="stop-color:#31b0f7;stop-opacity:1"/>
		</linearGradient>
		<linearGradient id="grad30-66" v:fillPattern="30" v:foreground="#f0f0f0" v:background="#ffffff" x1="0" y1="1" x2="0" y2="0">
			<stop offset="0" style="stop-color:#f0f0f0;stop-opacity:1"/>
			<stop offset="1" style="stop-color:#ffffff;stop-opacity:1"/>
		</linearGradient>
	</defs>
	<g v:mID="4" v:index="2" v:groupContext="foregroundPage">
		<v:userDefs>
			<v:ud v:nameU="msvThemeColors" v:val="VT0(36):26"/>
			<v:ud v:nameU="msvThemeEffects" v:val="VT0(16):26"/>
			<v:ud v:nameU="msvThemeOrder" v:val="VT0(0):26"/>
		</v:userDefs>
		<title>User Actors</title>
		<v:pageProperties v:drawingScale="0.0393701" v:pageScale="0.0393701" v:drawingUnits="24" v:shadowOffsetX="8.50394"
				v:shadowOffsetY="-8.50394"/>
		<v:layer v:name="Flowchart" v:index="0"/>
		<v:layer v:name="Connector" v:index="1"/>
		<g id="group13-1" transform="translate(51.0236,-43.3384)" v:mID="13" v:groupContext="group">
			<v:userDefs>
				<v:ud v:nameU="msvThemeColors" v:val="VT0(36):26"/>
				<v:ud v:nameU="msvThemeEffects" v:val="VT0(16):26"/>
			</v:userDefs>
			<title>Sheet.13</title>
			<g id="shape1-2" v:mID="1" v:groupContext="shape" v:layerMember="0" transform="translate(0,-276.158)">
				<title>Process</title>
				<desc>Actorsystem</desc>
				<v:custProps>
					<v:cp v:nameU="Cost" v:lbl="Cost" v:prompt="" v:type="7" v:format="@" v:sortKey="" v:invis="false"
							v:ask="false" v:langID="1033" v:cal="0"/>
					<v:cp v:nameU="ProcessNumber" v:lbl="Process Number" v:prompt="" v:type="2" v:format="" v:sortKey=""
							v:invis="false" v:ask="false" v:langID="1033" v:cal="0"/>
					<v:cp v:nameU="Owner" v:lbl="Owner" v:prompt="" v:type="0" v:format="" v:sortKey="" v:invis="false"
							v:ask="false" v:langID="1033" v:cal="0"/>
					<v:cp v:nameU="Function" v:lbl="Function" v:prompt="" v:type="0" v:format="" v:sortKey="" v:invis="false"
							v:ask="false" v:langID="1033" v:cal="0" v:val="VT4()"/>
					<v:cp v:nameU="StartDate" v:lbl="Start Date" v:prompt="" v:type="5" v:format="" v:sortKey="" v:invis="false"
							v:ask="false" v:langID="1033" v:cal="0"/>
					<v:cp v:nameU="EndDate" v:lbl="End Date" v:prompt="" v:type="5" v:format="" v:sortKey="" v:invis="false"
							v:ask="false" v:langID="1033" v:cal="0"/>
					<v:cp v:nameU="Status" v:lbl="Status" v:prompt="" v:type="4"
							v:format=";Not Started;In Progress;Completed;Deferred;Waiting on Input" v:sortKey="" v:invis="false"
							v:ask="false" v:langID="1033" v:cal="0" v:val="VT4()"/>
				</v:custProps>
				<v:userDefs>
					<v:ud v:nameU="visVersion" v:prompt="" v:val="VT0(14):26"/>
					<v:ud v:nameU="DefaultWidth" v:prompt="" v:val="VT0(0.98425196850394):24"/>
					<v:ud v:nameU="DefaultHeight" v:prompt="" v:val="VT0(0.59055118110236):24"/>
					<v:ud v:nameU="ResizeTxtHeight" v:prompt="" v:val="VT0(0.94488188976378):24"/>
					<v:ud v:nameU="msvThemeColors" v:val="VT0(36):26"/>
					<v:ud v:nameU="msvThemeEffects" v:val="VT0(16):26"/>
				</v:userDefs>
				<v:textBlock v:margins="rect(22,2,2,22)" v:tabSpace="42.5197" v:verticalAlign="0"/>
				<v:textRect cx="371.339" cy="478.646" width="742.68" height="233.26"/>
				<rect x="0" y="362.016" width="742.677" height="233.26" rx="22.6772" ry="22.6772" class="st1"/>
				<text x="22" y="416.42" class="st2" v:langID="2057"><v:paragraph/><v:tabList/>Actorsystem</text>			</g>
			<g id="shape5-5" v:mID="5" v:groupContext="shape" v:layerMember="0" transform="translate(0,-281.52)">
				<title>Process.5</title>
				<v:custProps>
					<v:cp v:nameU="Cost" v:lbl="Cost" v:prompt="" v:type="7" v:format="@" v:sortKey="" v:invis="false"
							v:ask="false" v:langID="1033" v:cal="0"/>
					<v:cp v:nameU="ProcessNumber" v:lbl="Process Number" v:prompt="" v:type="2" v:format="" v:sortKey=""
							v:invis="false" v:ask="false" v:langID="1033" v:cal="0"/>
					<v:cp v:nameU="Owner" v:lbl="Owner" v:prompt="" v:type="0" v:format="" v:sortKey="" v:invis="false"
							v:ask="false" v:langID="1033" v:cal="0"/>
					<v:cp v:nameU="Function" v:lbl="Function" v:prompt="" v:type="0" v:format="" v:sortKey="" v:invis="false"
							v:ask="false" v:langID="1033" v:cal="0" v:val="VT4()"/>
					<v:cp v:nameU="StartDate" v:lbl="Start Date" v:prompt="" v:type="5" v:format="" v:sortKey="" v:invis="false"
							v:ask="false" v:langID="1033" v:cal="0"/>
					<v:cp v:nameU="EndDate" v:lbl="End Date" v:prompt="" v:type="5" v:format="" v:sortKey="" v:invis="false"
							v:ask="false" v:langID="1033" v:cal="0"/>
					<v:cp v:nameU="Status" v:lbl="Status" v:prompt="" v:type="4"
							v:format=";Not Started;In Progress;Completed;Deferred;Waiting on Input" v:sortKey="" v:invis="false"
							v:ask="false" v:langID="1033" v:cal="0" v:val="VT4()"/>
				</v:custProps>
				<v:userDefs>
					<v:ud v:nameU="visVersion" v:prompt="" v:val="VT0(14):26"/>
					<v:ud v:nameU="DefaultWidth" v:prompt="" v:val="VT0(0.98425196850394):24"/>
					<v:ud v:nameU="DefaultHeight" v:prompt="" v:val="VT0(0.59055118110236):24"/>
					<v:ud v:nameU="ResizeTxtHeight" v:prompt="" v:val="VT0(0.59055118110236):24"/>
					<v:ud v:nameU="msvThemeColors" v:val="VT0(36):26"/>
					<v:ud v:nameU="msvThemeEffects" v:val="VT0(16):26"/>
				</v:userDefs>
				<rect x="0" y="568.464" width="742.677" height="26.8115" class="st3"/>
			</g>
			<g id="shape2-7" v:mID="2" v:groupContext="shape" v:layerMember="1;0" transform="translate(323.526,-407.169)">
				<title>On-page reference</title>
				<v:userDefs>
					<v:ud v:nameU="visVersion" v:prompt="" v:val="VT0(14):26"/>
					<v:ud v:nameU="msvThemeColors" v:val="VT0(36):26"/>
					<v:ud v:nameU="msvThemeEffects" v:val="VT0(16):26"/>
				</v:userDefs>
				<g id="shadow2-8" v:groupContext="shadow" v:shadowOffsetX="1.44" v:shadowOffsetY="-1.44" v:shadowType="1"
						transform="matrix(1,0,0,1,1.44,1.44)" class="st4">
					<path d="M0 557.56 A37.7188 37.7188 0 0 1 75.44 557.56 A37.7188 37.7188 0 1 1 0 557.56 Z" class="st5"/>
				</g>
				<path d="M0 557.56 A37.7188 37.7188 0 0 1 75.44 557.56 A37.7188 37.7188 0 1 1 0 557.56 Z" class="st6"/>
			</g>
			<g id="shape3-13" v:mID="3" v:groupContext="shape" v:layerMember="1;0" transform="translate(249.599,-324.236)">
				<title>On-page reference.3</title>
				<v:userDefs>
					<v:ud v:nameU="visVersion" v:prompt="" v:val="VT0(14):26"/>
					<v:ud v:nameU="msvThemeColors" v:val="VT0(36):26"/>
					<v:ud v:nameU="msvThemeEffects" v:val="VT0(16):26"/>
				</v:userDefs>
				<g id="shadow3-14" v:groupContext="shadow" v:shadowOffsetX="1.44" v:shadowOffsetY="-1.44" v:shadowType="1"
						transform="matrix(1,0,0,1,1.44,1.44)" class="st4">
					<path d="M0 557.56 A37.7188 37.7188 0 0 1 75.44 557.56 A37.7188 37.7188 0 1 1 0 557.56 Z" class="st5"/>
				</g>
				<path d="M0 557.56 A37.7188 37.7188 0 0 1 75.44 557.56 A37.7188 37.7188 0 1 1 0 557.56 Z" class="st6"/>
			</g>
			<g id="shape4-18" v:mID="4" v:groupContext="shape" v:layerMember="1;0" transform="translate(399.125,-324.236)">
				<title>On-page reference.4</title>
				<v:userDefs>
					<v:ud v:nameU="visVersion" v:prompt="" v:val="VT0(14):26"/>
					<v:ud v:nameU="msvThemeColors" v:val="VT0(36):26"/>
					<v:ud v:nameU="msvThemeEffects" v:val="VT0(16):26"/>
				</v:userDefs>
				<g id="shadow4-19" v:groupContext="shadow" v:shadowOffsetX="1.44" v:shadowOffsetY="-1.44" v:shadowType="1"
						transform="matrix(1,0,0,1,1.44,1.44)" class="st4">
					<path d="M0 557.56 A37.7188 37.7188 0 0 1 75.44 557.56 A37.7188 37.7188 0 1 1 0 557.56 Z" class="st5"/>
				</g>
				<path d="M0 557.56 A37.7188 37.7188 0 0 1 75.44 557.56 A37.7188 37.7188 0 1 1 0 557.56 Z" class="st6"/>
			</g>
			<g id="shape6-23" v:mID="6" v:groupContext="shape" v:layerMember="1;0" transform="translate(175.937,-216.99)">
				<title>On-page reference.6</title>
				<v:userDefs>
					<v:ud v:nameU="visVersion" v:prompt="" v:val="VT0(14):26"/>
					<v:ud v:nameU="msvThemeColors" v:val="VT0(36):26"/>
					<v:ud v:nameU="msvThemeEffects" v:val="VT0(16):26"/>
				</v:userDefs>
				<g id="shadow6-24" v:groupContext="shadow" v:shadowOffsetX="1.44" v:shadowOffsetY="-1.44" v:shadowType="1"
						transform="matrix(1,0,0,1,1.44,1.44)" class="st4">
					<path d="M0 557.56 A37.7188 37.7188 0 0 1 75.44 557.56 A37.7188 37.7188 0 1 1 0 557.56 Z" class="st5"/>
				</g>
				<path d="M0 557.56 A37.7188 37.7188 0 0 1 75.44 557.56 A37.7188 37.7188 0 1 1 0 557.56 Z" class="st6"/>
			</g>
			<g id="shape7-28" v:mID="7" v:groupContext="shape" v:layerMember="1;0" transform="translate(102.01,-134.057)">
				<title>On-page reference.7</title>
				<v:userDefs>
					<v:ud v:nameU="visVersion" v:prompt="" v:val="VT0(14):26"/>
					<v:ud v:nameU="msvThemeColors" v:val="VT0(36):26"/>
					<v:ud v:nameU="msvThemeEffects" v:val="VT0(16):26"/>
				</v:userDefs>
				<g id="shadow7-29" v:groupContext="shadow" v:shadowOffsetX="1.44" v:shadowOffsetY="-1.44" v:shadowType="1"
						transform="matrix(1,0,0,1,1.44,1.44)" class="st4">
					<path d="M0 557.56 A37.7188 37.7188 0 0 1 75.44 557.56 A37.7188 37.7188 0 1 1 0 557.56 Z" class="st5"/>
				</g>
				<path d="M0 557.56 A37.7188 37.7188 0 0 1 75.44 557.56 A37.7188 37.7188 0 1 1 0 557.56 Z" class="st6"/>
			</g>
			<g id="shape8-33" v:mID="8" v:groupContext="shape" v:layerMember="1;0" transform="translate(251.536,-134.057)">
				<title>On-page reference.8</title>
				<v:userDefs>
					<v:ud v:nameU="visVersion" v:prompt="" v:val="VT0(14):26"/>
					<v:ud v:nameU="msvThemeColors" v:val="VT0(36):26"/>
					<v:ud v:nameU="msvThemeEffects" v:val="VT0(16):26"/>
				</v:userDefs>
				<g id="shadow8-34" v:groupContext="shadow" v:shadowOffsetX="1.44" v:shadowOffsetY="-1.44" v:shadowType="1"
						transform="matrix(1,0,0,1,1.44,1.44)" class="st4">
					<path d="M0 557.56 A37.7188 37.7188 0 0 1 75.44 557.56 A37.7188 37.7188 0 1 1 0 557.56 Z" class="st5"/>
				</g>
				<path d="M0 557.56 A37.7188 37.7188 0 0 1 75.44 557.56 A37.7188 37.7188 0 1 1 0 557.56 Z" class="st6"/>
			</g>
			<g id="shape9-38" v:mID="9" v:groupContext="shape" v:layerMember="1;0" transform="translate(41.8795,-42.7156)">
				<title>On-page reference.9</title>
				<v:userDefs>
					<v:ud v:nameU="visVersion" v:prompt="" v:val="VT0(14):26"/>
					<v:ud v:nameU="msvThemeColors" v:val="VT0(36):26"/>
					<v:ud v:nameU="msvThemeEffects" v:val="VT0(16):26"/>
				</v:userDefs>
				<g id="shadow9-39" v:groupContext="shadow" v:shadowOffsetX="1.44" v:shadowOffsetY="-1.44" v:shadowType="1"
						transform="matrix(1,0,0,1,1.44,1.44)" class="st4">
					<path d="M0 557.56 A37.7188 37.7188 0 0 1 75.44 557.56 A37.7188 37.7188 0 1 1 0 557.56 Z" class="st5"/>
				</g>
				<path d="M0 557.56 A37.7188 37.7188 0 0 1 75.44 557.56 A37.7188 37.7188 0 1 1 0 557.56 Z" class="st6"/>
			</g>
			<g id="shape10-43" v:mID="10" v:groupContext="shape" v:layerMember="1;0" transform="translate(177.208,-40.2172)">
				<title>On-page reference.10</title>
				<v:userDefs>
					<v:ud v:nameU="visVersion" v:prompt="" v:val="VT0(14):26"/>
					<v:ud v:nameU="msvThemeColors" v:val="VT0(36):26"/>
					<v:ud v:nameU="msvThemeEffects" v:val="VT0(16):26"/>
				</v:userDefs>
				<g id="shadow10-44" v:groupContext="shadow" v:shadowOffsetX="1.44" v:shadowOffsetY="-1.44" v:shadowType="1"
						transform="matrix(1,0,0,1,1.44,1.44)" class="st4">
					<path d="M0 557.56 A37.7188 37.7188 0 0 1 75.44 557.56 A37.7188 37.7188 0 1 1 0 557.56 Z" class="st5"/>
				</g>
				<path d="M0 557.56 A37.7188 37.7188 0 0 1 75.44 557.56 A37.7188 37.7188 0 1 1 0 557.56 Z" class="st6"/>
			</g>
			<g id="shape11-48" v:mID="11" v:groupContext="shape" v:layerMember="1;0" transform="translate(326.734,-40.2172)">
				<title>On-page reference.11</title>
				<v:userDefs>
					<v:ud v:nameU="visVersion" v:prompt="" v:val="VT0(14):26"/>
					<v:ud v:nameU="msvThemeColors" v:val="VT0(36):26"/>
					<v:ud v:nameU="msvThemeEffects" v:val="VT0(16):26"/>
				</v:userDefs>
				<g id="shadow11-49" v:groupContext="shadow" v:shadowOffsetX="1.44" v:shadowOffsetY="-1.44" v:shadowType="1"
						transform="matrix(1,0,0,1,1.44,1.44)" class="st4">
					<path d="M0 557.56 A37.7188 37.7188 0 0 1 75.44 557.56 A37.7188 37.7188 0 1 1 0 557.56 Z" class="st5"/>
				</g>
				<path d="M0 557.56 A37.7188 37.7188 0 0 1 75.44 557.56 A37.7188 37.7188 0 1 1 0 557.56 Z" class="st6"/>
			</g>
			<g id="shape12-53" v:mID="12" v:groupContext="shape" v:layerMember="1;0" transform="translate(487.603,-216.99)">
				<title>On-page reference.12</title>
				<v:userDefs>
					<v:ud v:nameU="visVersion" v:prompt="" v:val="VT0(14):26"/>
					<v:ud v:nameU="msvThemeColors" v:val="VT0(36):26"/>
					<v:ud v:nameU="msvThemeEffects" v:val="VT0(16):26"/>
				</v:userDefs>
				<g id="shadow12-54" v:groupContext="shadow" v:shadowOffsetX="1.44" v:shadowOffsetY="-1.44" v:shadowType="1"
						transform="matrix(1,0,0,1,1.44,1.44)" class="st4">
					<path d="M0 557.56 A37.7188 37.7188 0 0 1 75.44 557.56 A37.7188 37.7188 0 1 1 0 557.56 Z" class="st5"/>
				</g>
				<path d="M0 557.56 A37.7188 37.7188 0 0 1 75.44 557.56 A37.7188 37.7188 0 1 1 0 557.56 Z" class="st6"/>
			</g>
			<g id="shape14-58" v:mID="14" v:groupContext="shape" v:layerMember="0">
				<title>Process.14</title>
				<v:custProps>
					<v:cp v:nameU="Cost" v:lbl="Cost" v:prompt="" v:type="7" v:format="@" v:sortKey="" v:invis="false"
							v:ask="false" v:langID="1033" v:cal="0"/>
					<v:cp v:nameU="ProcessNumber" v:lbl="Process Number" v:prompt="" v:type="2" v:format="" v:sortKey=""
							v:invis="false" v:ask="false" v:langID="1033" v:cal="0"/>
					<v:cp v:nameU="Owner" v:lbl="Owner" v:prompt="" v:type="0" v:format="" v:sortKey="" v:invis="false"
							v:ask="false" v:langID="1033" v:cal="0"/>
					<v:cp v:nameU="Function" v:lbl="Function" v:prompt="" v:type="0" v:format="" v:sortKey="" v:invis="false"
							v:ask="false" v:langID="1033" v:cal="0" v:val="VT4()"/>
					<v:cp v:nameU="StartDate" v:lbl="Start Date" v:prompt="" v:type="5" v:format="" v:sortKey="" v:invis="false"
							v:ask="false" v:langID="1033" v:cal="0"/>
					<v:cp v:nameU="EndDate" v:lbl="End Date" v:prompt="" v:type="5" v:format="" v:sortKey="" v:invis="false"
							v:ask="false" v:langID="1033" v:cal="0"/>
					<v:cp v:nameU="Status" v:lbl="Status" v:prompt="" v:type="4"
							v:format=";Not Started;In Progress;Completed;Deferred;Waiting on Input" v:sortKey="" v:invis="false"
							v:ask="false" v:langID="1033" v:cal="0" v:val="VT4()"/>
				</v:custProps>
				<v:userDefs>
					<v:ud v:nameU="visVersion" v:prompt="" v:val="VT0(14):26"/>
					<v:ud v:nameU="DefaultWidth" v:prompt="" v:val="VT0(0.98425196850394):24"/>
					<v:ud v:nameU="DefaultHeight" v:prompt="" v:val="VT0(0.59055118110236):24"/>
					<v:ud v:nameU="ResizeTxtHeight" v:prompt="" v:val="VT0(0.86614173228346):24"/>
					<v:ud v:nameU="msvThemeColors" v:val="VT0(36):26"/>
					<v:ud v:nameU="msvThemeEffects" v:val="VT0(16):26"/>
				</v:userDefs>
				<rect x="0" y="286.944" width="742.677" height="308.332" rx="22.6772" ry="22.6772" class="st3"/>
			</g>
			<g id="shape15-60" v:mID="15" v:groupContext="shape" transform="translate(816.14,-234.591) rotate(49.728)">
				<title>Sheet.15</title>
				<v:userDefs>
					<v:ud v:nameU="msvThemeColors" v:val="VT0(36):26"/>
					<v:ud v:nameU="msvThemeEffects" v:val="VT0(16):26"/>
				</v:userDefs>
				<g id="shadow15-61" v:groupContext="shadow" v:shadowOffsetX="1.44" v:shadowOffsetY="-1.44" v:shadowType="1"
						transform="matrix(1,2.00577E-018,-1.09504E-017,1,2.02954,-0.167857)" class="st4">
					<path d="M0 595.28 L253.01 595.28" class="st7"/>
				</g>
				<path d="M0 595.28 L253.01 595.28" class="st8"/>
			</g>
			<g id="shape16-68" v:mID="16" v:groupContext="shape" transform="translate(590.641,41.2336) rotate(49.6859)">
				<title>Sheet.16</title>
				<v:userDefs>
					<v:ud v:nameU="msvThemeColors" v:val="VT0(36):26"/>
					<v:ud v:nameU="msvThemeEffects" v:val="VT0(16):26"/>
				</v:userDefs>
				<g id="shadow16-69" v:groupContext="shadow" v:shadowOffsetX="1.44" v:shadowOffsetY="-1.44" v:shadowType="1"
						transform="matrix(1,4.11184E-017,-4.00613E-017,1,2.02966,-0.166366)" class="st4">
					<path d="M0 595.28 L116.04 595.28" class="st7"/>
				</g>
				<path d="M0 595.28 L116.04 595.28" class="st8"/>
			</g>
			<g id="shape17-75" v:mID="17" v:groupContext="shape" transform="translate(649.046,-61.5034) rotate(47.3828)">
				<title>Sheet.17</title>
				<v:userDefs>
					<v:ud v:nameU="msvThemeColors" v:val="VT0(36):26"/>
					<v:ud v:nameU="msvThemeEffects" v:val="VT0(16):26"/>
				</v:userDefs>
				<g id="shadow17-76" v:groupContext="shadow" v:shadowOffsetX="1.44" v:shadowOffsetY="-1.44" v:shadowType="1"
						transform="matrix(1,2.52619E-017,1.87296E-017,1,2.03471,-0.0846681)" class="st4">
					<path d="M0 595.28 L242.76 595.28" class="st7"/>
				</g>
				<path d="M0 595.28 L242.76 595.28" class="st8"/>
			</g>
			<g id="shape18-82" v:mID="18" v:groupContext="shape" transform="translate(823.125,526.602) rotate(129.221)">
				<title>Sheet.18</title>
				<v:userDefs>
					<v:ud v:nameU="msvThemeColors" v:val="VT0(36):26"/>
					<v:ud v:nameU="msvThemeEffects" v:val="VT0(16):26"/>
				</v:userDefs>
				<g id="shadow18-83" v:groupContext="shadow" v:shadowOffsetX="1.44" v:shadowOffsetY="-1.44" v:shadowType="1"
						transform="matrix(1,-6.15285E-018,-6.15285E-018,1,0.205072,-2.02612)" class="st4">
					<path d="M0 595.28 L470.67 595.28" class="st7"/>
				</g>
				<path d="M0 595.28 L470.67 595.28" class="st8"/>
			</g>
			<g id="shape19-89" v:mID="19" v:groupContext="shape" v:layerMember="1;0" transform="translate(323.526,-407.169)">
				<title>On-page reference.19</title>
				<desc>/</desc>
				<v:userDefs>
					<v:ud v:nameU="visVersion" v:prompt="" v:val="VT0(14):26"/>
					<v:ud v:nameU="msvThemeColors" v:val="VT0(36):26"/>
					<v:ud v:nameU="msvThemeEffects" v:val="VT0(16):26"/>
				</v:userDefs>
				<v:textBlock v:margins="rect(2,2,2,2)" v:tabSpace="42.5197"/>
				<v:textRect cx="37.7188" cy="557.557" width="75.44" height="75.4376"/>
				<path d="M0 557.56 A37.7188 37.7188 0 0 1 75.44 557.56 A37.7188 37.7188 0 1 1 0 557.56 Z" class="st9"/>
				<text x="33.42" y="563.56" class="st10" v:langID="2057"><v:paragraph v:horizAlign="1"/><v:tabList/>/</text>			</g>
			<g id="shape20-92" v:mID="20" v:groupContext="shape" v:layerMember="1;0" transform="translate(249.599,-324.236)">
				<title>On-page reference.20</title>
				<desc>/user</desc>
				<v:userDefs>
					<v:ud v:nameU="visVersion" v:prompt="" v:val="VT0(14):26"/>
					<v:ud v:nameU="msvThemeColors" v:val="VT0(36):26"/>
					<v:ud v:nameU="msvThemeEffects" v:val="VT0(16):26"/>
				</v:userDefs>
				<v:textBlock v:margins="rect(2,2,2,2)" v:tabSpace="42.5197"/>
				<v:textRect cx="37.7188" cy="557.557" width="75.44" height="75.4376"/>
				<path d="M0 557.56 A37.7188 37.7188 0 0 1 75.44 557.56 A37.7188 37.7188 0 1 1 0 557.56 Z" class="st9"/>
				<text x="15.48" y="563.56" class="st10" v:langID="2057"><v:paragraph v:horizAlign="1"/><v:tabList/>/user</text>			</g>
			<g id="shape21-95" v:mID="21" v:groupContext="shape" v:layerMember="1;0" transform="translate(399.125,-324.236)">
				<title>On-page reference.21</title>
				<desc>/system</desc>
				<v:userDefs>
					<v:ud v:nameU="visVersion" v:prompt="" v:val="VT0(14):26"/>
					<v:ud v:nameU="msvThemeColors" v:val="VT0(36):26"/>
					<v:ud v:nameU="msvThemeEffects" v:val="VT0(16):26"/>
				</v:userDefs>
				<v:textBlock v:margins="rect(2,2,2,2)" v:tabSpace="42.5197"/>
				<v:textRect cx="37.7188" cy="557.557" width="75.44" height="75.4376"/>
				<path d="M0 557.56 A37.7188 37.7188 0 0 1 75.44 557.56 A37.7188 37.7188 0 1 1 0 557.56 Z" class="st9"/>
				<text x="4.07" y="563.56" class="st10" v:langID="2057"><v:paragraph v:horizAlign="1"/><v:tabList/>/system</text>			</g>
			<g id="shape22-98" v:mID="22" v:groupContext="shape" v:layerMember="1;0" transform="translate(173.256,-216.99)">
				<title>On-page reference.22</title>
				<desc>/a1</desc>
				<v:userDefs>
					<v:ud v:nameU="visVersion" v:prompt="" v:val="VT0(14):26"/>
					<v:ud v:nameU="msvThemeColors" v:val="VT0(36):26"/>
					<v:ud v:nameU="msvThemeEffects" v:val="VT0(16):26"/>
				</v:userDefs>
				<v:textBlock v:margins="rect(2,2,2,2)" v:tabSpace="42.5197"/>
				<v:textRect cx="37.7188" cy="557.557" width="75.44" height="75.4376"/>
				<path d="M0 557.56 A37.7188 37.7188 0 0 1 75.44 557.56 A37.7188 37.7188 0 1 1 0 557.56 Z" class="st6"/>
				<text x="23.42" y="563.56" class="st10" v:langID="2057"><v:paragraph v:horizAlign="1"/><v:tabList/>/a1</text>			</g>
			<g id="shape23-102" v:mID="23" v:groupContext="shape" v:layerMember="1;0" transform="translate(99.3285,-134.057)">
				<title>On-page reference.23</title>
				<desc>/b1</desc>
				<v:userDefs>
					<v:ud v:nameU="visVersion" v:prompt="" v:val="VT0(14):26"/>
					<v:ud v:nameU="msvThemeColors" v:val="VT0(36):26"/>
					<v:ud v:nameU="msvThemeEffects" v:val="VT0(16):26"/>
				</v:userDefs>
				<v:textBlock v:margins="rect(2,2,2,2)" v:tabSpace="42.5197"/>
				<v:textRect cx="37.7188" cy="557.557" width="75.44" height="75.4376"/>
				<path d="M0 557.56 A37.7188 37.7188 0 0 1 75.44 557.56 A37.7188 37.7188 0 1 1 0 557.56 Z" class="st6"/>
				<text x="22.99" y="563.56" class="st10" v:langID="2057"><v:paragraph v:horizAlign="1"/><v:tabList/>/b1</text>			</g>
			<g id="shape24-106" v:mID="24" v:groupContext="shape" v:layerMember="1;0" transform="translate(248.855,-134.057)">
				<title>On-page reference.24</title>
				<desc>/b2</desc>
				<v:userDefs>
					<v:ud v:nameU="visVersion" v:prompt="" v:val="VT0(14):26"/>
					<v:ud v:nameU="msvThemeColors" v:val="VT0(36):26"/>
					<v:ud v:nameU="msvThemeEffects" v:val="VT0(16):26"/>
				</v:userDefs>
				<v:textBlock v:margins="rect(2,2,2,2)" v:tabSpace="42.5197"/>
				<v:textRect cx="37.7188" cy="557.557" width="75.44" height="75.4376"/>
				<path d="M0 557.56 A37.7188 37.7188 0 0 1 75.44 557.56 A37.7188 37.7188 0 1 1 0 557.56 Z" class="st6"/>
				<text x="22.99" y="563.56" class="st10" v:langID="2057"><v:paragraph v:horizAlign="1"/><v:tabList/>/b2</text>			</g>
			<g id="shape25-110" v:mID="25" v:groupContext="shape" v:layerMember="1;0" transform="translate(26.8115,-42.5328)">
				<title>On-page reference.25</title>
				<desc>/c1</desc>
				<v:userDefs>
					<v:ud v:nameU="visVersion" v:prompt="" v:val="VT0(14):26"/>
					<v:ud v:nameU="msvThemeColors" v:val="VT0(36):26"/>
					<v:ud v:nameU="msvThemeEffects" v:val="VT0(16):26"/>
				</v:userDefs>
				<v:textBlock v:margins="rect(2,2,2,2)" v:tabSpace="42.5197"/>
				<v:textRect cx="37.7188" cy="557.557" width="75.44" height="75.4376"/>
				<path d="M0 557.56 A37.7188 37.7188 0 0 1 75.44 557.56 A37.7188 37.7188 0 1 1 0 557.56 Z" class="st6"/>
				<text x="24.17" y="563.56" class="st10" v:langID="2057"><v:paragraph v:horizAlign="1"/><v:tabList/>/c1</text>			</g>
			<g id="shape26-114" v:mID="26" v:groupContext="shape" v:layerMember="1;0" transform="translate(174.527,-40.2172)">
				<title>On-page reference.26</title>
				<desc>/c2</desc>
				<v:userDefs>
					<v:ud v:nameU="visVersion" v:prompt="" v:val="VT0(14):26"/>
					<v:ud v:nameU="msvThemeColors" v:val="VT0(36):26"/>
					<v:ud v:nameU="msvThemeEffects" v:val="VT0(16):26"/>
				</v:userDefs>
				<v:textBlock v:margins="rect(2,2,2,2)" v:tabSpace="42.5197"/>
				<v:textRect cx="37.7188" cy="557.557" width="75.44" height="75.4376"/>
				<path d="M0 557.56 A37.7188 37.7188 0 0 1 75.44 557.56 A37.7188 37.7188 0 1 1 0 557.56 Z" class="st6"/>
				<text x="24.17" y="563.56" class="st10" v:langID="2057"><v:paragraph v:horizAlign="1"/><v:tabList/>/c2</text>			</g>
			<g id="shape27-118" v:mID="27" v:groupContext="shape" v:layerMember="1;0" transform="translate(334.778,-40.2172)">
				<title>On-page reference.27</title>
				<desc>/d1</desc>
				<v:userDefs>
					<v:ud v:nameU="visVersion" v:prompt="" v:val="VT0(14):26"/>
					<v:ud v:nameU="msvThemeColors" v:val="VT0(36):26"/>
					<v:ud v:nameU="msvThemeEffects" v:val="VT0(16):26"/>
				</v:userDefs>
				<v:textBlock v:margins="rect(2,2,2,2)" v:tabSpace="42.5197"/>
				<v:textRect cx="37.7188" cy="557.557" width="75.44" height="75.4376"/>
				<path d="M0 557.56 A37.7188 37.7188 0 0 1 75.44 557.56 A37.7188 37.7188 0 1 1 0 557.56 Z" class="st6"/>
				<text x="22.99" y="563.56" class="st10" v:langID="2057"><v:paragraph v:horizAlign="1"/><v:tabList/>/d1</text>			</g>
			<g id="shape28-122" v:mID="28" v:groupContext="shape" v:layerMember="1;0" transform="translate(487.603,-216.99)">
				<title>On-page reference.28</title>
				<desc>/logger1</desc>
				<v:userDefs>
					<v:ud v:nameU="visVersion" v:prompt="" v:val="VT0(14):26"/>
					<v:ud v:nameU="msvThemeColors" v:val="VT0(36):26"/>
					<v:ud v:nameU="msvThemeEffects" v:val="VT0(16):26"/>
				</v:userDefs>
				<v:textBlock v:margins="rect(2,2,2,2)" v:tabSpace="42.5197"/>
				<v:textRect cx="37.7188" cy="557.557" width="75.44" height="75.4376"/>
				<path d="M0 557.56 A37.7188 37.7188 0 0 1 75.44 557.56 A37.7188 37.7188 0 1 1 0 557.56 Z" class="st6"/>
				<text x="2.45" y="563.56" class="st10" v:langID="2057"><v:paragraph v:horizAlign="1"/><v:tabList/>/logger1</text>			</g>
		</g>
	</g>
</svg>
