<?xml version="1.0" encoding="UTF-8" standalone="no"?>
<!DOCTYPE svg PUBLIC "-//W3C//DTD SVG 1.0//EN" "http://www.w3.org/TR/2001/REC-SVG-20010904/DTD/svg10.dtd">
<!-- Generated by Microsoft Visio 11.0, SVG Export, v1.0 directives.svg Page-1 -->
<svg xmlns="http://www.w3.org/2000/svg" xmlns:xlink="http://www.w3.org/1999/xlink" xmlns:ev="http://www.w3.org/2001/xml-events"
		xmlns:v="http://schemas.microsoft.com/visio/2003/SVGExtensions/" width="11.1854in" height="3.30993in"
		viewBox="0 0 805.348 238.315" xml:space="preserve" color-interpolation-filters="sRGB" class="st3">
	<v:documentProperties v:langID="1033" v:metric="true" v:viewMarkup="false"/>

	<style type="text/css">
	<![CDATA[
		.st1 {fill:#00b0f0;stroke:none;stroke-linecap:butt;stroke-width:0.25}
		.st2 {fill:#00b0f0;stroke:none;stroke-linecap:round;stroke-linejoin:round;stroke-width:0.25}
		.st3 {fill:none;fill-rule:evenodd;font-size:12px;overflow:visible;stroke-linecap:square;stroke-miterlimit:3}
	]]>
	</style>

	<g v:mID="0" v:index="1" v:groupContext="foregroundPage">
		<title>Page-1</title>
		<v:pageProperties v:drawingScale="0.0393701" v:pageScale="0.0393701" v:drawingUnits="24" v:shadowOffsetX="9"
				v:shadowOffsetY="-9"/>
		<g id="group1-1" v:mID="1" v:groupContext="group">
			<v:userDefs>
				<v:ud v:nameU="msvThemeColors" v:val="VT0(36):26"/>
				<v:ud v:nameU="msvThemeEffects" v:val="VT0(16):26"/>
			</v:userDefs>
			<title>Sheet.1</title>
			<g id="shape2-2" v:mID="2" v:groupContext="shape" transform="translate(109.625,285.104) scale(1,-1)">
				<title>Sheet.2</title>
				<v:userDefs>
					<v:ud v:nameU="msvThemeColors" v:val="VT0(36):26"/>
					<v:ud v:nameU="msvThemeEffects" v:val="VT0(16):26"/>
				</v:userDefs>
				<path d="M8.34 237 C3.5 236.09 0 232 0 227.15 C0 224.14 0.71 222.19 2.54 220.08 C5.68 216.51 10.41 215.44 14.5 217.34
							 C18.27 219.09 20.3 222.03 20.57 226.24 C21.05 233.07 15.09 238.32 8.34 237 Z" class="st1"/>
			</g>
			<g id="shape3-4" v:mID="3" v:groupContext="shape" transform="translate(13.6237,299.92) scale(1,-1)">
				<title>Sheet.3</title>
				<v:userDefs>
					<v:ud v:nameU="msvThemeColors" v:val="VT0(36):26"/>
					<v:ud v:nameU="msvThemeEffects" v:val="VT0(16):26"/>
				</v:userDefs>
				<path d="M150.62 237.76 C146.48 236.85 142.91 235.18 139.49 232.64 C138.62 232 133.14 226.76 127.34 220.96 L116.73
							 210.47 L116.58 215.36 C116.42 220.92 115.78 222.86 113.44 225.21 C108.51 230.13 99.89 228.62 96.95 222.31
							 C96 220.28 96 220.2 96 204.99 L96 189.7 L91.67 185.37 L87.34 181.04 L87.18 188.35 C87.02 196.73 86.75
							 197.68 83.53 200.5 C78.21 205.19 69.55 203 67.17 196.37 C66.77 195.18 66.65 190.97 66.61 177.58 L66.61
							 160.31 L59.74 153.44 L52.91 146.6 L39.08 146.6 C23.12 146.6 21.73 146.4 15.77 143.51 C12.63 142 11.44
							 141.12 8.62 138.3 C2.58 132.26 0 125.47 0.4 117.01 C0.79 109.43 3.18 103.98 8.42 98.74 C12.03 95.13
							 15.33 93.06 19.94 91.47 L23.12 90.4 L44.37 90.4 C68.04 90.4 67.09 90.32 73.36 93.26 C76.3 94.61 77.21
							 95.52 120.03 138.3 L163.72 181.95 L174.57 181.95 C187.43 181.95 189.7 182.27 195.3 185.01 C198.52 186.56
							 199.59 187.36 202.65 190.45 C205.55 193.35 206.58 194.74 207.93 197.44 C210.04 201.73 210.87 205.39
							 210.87 210.15 C210.91 222.51 203.48 232.79 191.49 237.04 L188.35 238.16 L170.67 238.24 C157.05 238.32
							 152.44 238.2 150.62 237.76 ZM187.2 227.87 C197.76 225.05 203.56 214.05 199.91 203.8 C198.44 199.79 195.06
							 195.97 191.25 194.03 C187.43 192.08 185.65 191.88 173.45 191.88 C164.2 191.88 161.7 191.76 160.11 191.25
							 C158.32 190.69 154.9 187.36 114.47 146.84 C67.28 99.5 69.67 101.72 64.23 100.53 C62.68 100.21 56.68
							 100.09 43.17 100.21 C24.51 100.33 24.27 100.33 22.04 101.24 C11.72 105.41 7.31 117.13 12.31 126.94 C14.18
							 130.68 17.75 133.81 22.12 135.56 C24.23 136.44 24.94 136.48 40 136.67 L55.73 136.87 L57.63 137.87 C59.02
							 138.58 71.18 150.5 102.87 182.15 C148.35 227.59 147.32 226.6 152.01 227.87 C154.71 228.62 184.46 228.62
							 187.2 227.87 Z" class="st1"/>
			</g>
			<g id="shape4-6" v:mID="4" v:groupContext="shape" transform="translate(76.2211,310.525) scale(1,-1)">
				<title>Sheet.4</title>
				<v:userDefs>
					<v:ud v:nameU="msvThemeColors" v:val="VT0(36):26"/>
					<v:ud v:nameU="msvThemeEffects" v:val="VT0(16):26"/>
				</v:userDefs>
				<path d="M9.53 236.33 C0 231.36 3.57 216.79 14.3 216.79 C18.43 216.79 21.69 218.73 23.55 222.31 C25.7 226.4 24.71
							 232.08 21.37 234.9 C18.03 237.72 13.31 238.32 9.53 236.33 Z" class="st1"/>
			</g>
		</g>
		<g id="shape5-8" v:mID="5" v:groupContext="shape" transform="translate(260.591,-24.3271)">
			<title>Sheet.5</title>
			<v:userDefs>
				<v:ud v:nameU="msvThemeColors" v:val="VT0(36):26"/>
				<v:ud v:nameU="msvThemeEffects" v:val="VT0(16):26"/>
			</v:userDefs>
			<path d="M0 69.38 L0 238.32 L135.15 148.21 L0 69.38 Z" class="st2"/>
		</g>
		<g id="group7-10" transform="translate(428.313,-21.8171)" v:mID="7" v:groupContext="group">
			<v:userDefs>
				<v:ud v:nameU="msvThemeColors" v:val="VT0(36):26"/>
				<v:ud v:nameU="msvThemeEffects" v:val="VT0(16):26"/>
			</v:userDefs>
			<title>Sheet.7</title>
			<g id="shape6-11" v:mID="6" v:groupContext="shape" transform="translate(-7.99361E-014,302.672) scale(1,-1)">
				<title>Sheet.6</title>
				<v:userDefs>
					<v:ud v:nameU="msvThemeColors" v:val="VT0(36):26"/>
					<v:ud v:nameU="msvThemeEffects" v:val="VT0(16):26"/>
				</v:userDefs>
				<path d="M66.17 231.52 C33.29 223.61 7.35 194.48 3.47 160.91 L2.5 153.28 L13.87 153.28 L25.11 153.28 L25.11 158.13
							 C25.11 171.31 35.93 190.18 48.83 199.75 C79.21 222.08 122.63 211.96 139 178.8 C150.24 156.05 146.63
							 129.7 129.71 111.52 C109.59 90.16 76.3 86 51.74 101.81 C48 104.17 43.56 107.64 41.76 109.58 L38.43 113.19
							 L50.63 125.4 L62.84 137.74 L34.68 137.05 C19.14 136.63 5.83 135.8 5.13 135.24 C4.16 134.27 -0 78.51
							 0.83 77.26 C0.97 77.12 6.1 81.7 12.21 87.39 L23.31 97.65 L26.63 94.18 C32.6 87.8 48 78.37 58.12 74.76
							 C88.23 64.36 120.13 71.85 143.02 94.88 C159.67 111.66 167.3 129.97 167.16 153.28 C167.02 174.36 159.81
							 191.7 143.99 208.35 C124.16 229.3 94.05 238.32 66.17 231.52 Z" class="st1"/>
			</g>
		</g>
		<g id="group8-13" transform="translate(622.513,-17.3788)" v:mID="8" v:groupContext="group">
			<v:userDefs>
				<v:ud v:nameU="msvThemeColors" v:val="VT0(36):26"/>
				<v:ud v:nameU="msvThemeEffects" v:val="VT0(16):26"/>
			</v:userDefs>
			<title>Sheet.8</title>
			<g id="shape10-14" v:mID="10" v:groupContext="shape" transform="translate(6.17685,299.973) scale(1,-1)">
				<title>Sheet.10</title>
				<v:userDefs>
					<v:ud v:nameU="msvThemeColors" v:val="VT0(36):26"/>
					<v:ud v:nameU="msvThemeEffects" v:val="VT0(16):26"/>
				</v:userDefs>
				<path d="M66.71 237.88 L49.72 237.7 L24.89 212.8 L0 187.97 L0 152.89 L0 117.8 L25.2 92.85 L50.34 67.9 L85.24 67.83
							 L120.14 67.83 L145.34 93.04 L170.54 118.24 L170.36 153.26 L170.17 188.28 L145.16 213.3 L120.14 238.32
							 L101.92 238.19 C91.91 238.07 76.04 237.94 66.71 237.88 ZM36.88 181.98 C42.93 179.76 45.09 176.05 45.09
							 167.9 L45.09 164.81 L37.99 164.81 L30.88 164.81 L30.88 167.96 C30.88 169.69 30.58 171.61 30.27 172.28
							 C29.53 173.58 27.8 173.83 26.68 172.72 C25.76 171.79 25.7 166.42 26.56 164.75 C26.93 164.13 30.08 161.66
							 33.54 159.25 C41.01 154.19 42 153.38 43.67 150.91 C46.2 147.27 47.13 137.51 45.59 131.7 C43.67 124.6
							 33.29 120.52 23.41 123.06 C14.95 125.22 12.17 129.17 12.11 138.87 L12.04 144.74 L19.02 144.92 L25.94
							 145.11 L25.94 140.1 C25.94 134.36 26.56 132.69 28.72 132.69 C30.7 132.69 31.5 134.36 31.5 138.44 C31.5
							 142.82 30.7 143.81 21.87 150.05 C15.81 154.37 14.64 155.55 13.28 158.26 C11.37 162.22 10.87 166.42 11.67
							 171.79 C12.11 174.69 12.79 176.67 13.84 178.09 C17.85 183.28 28.48 185.13 36.88 181.98 ZM111 181.98
							 C114.46 180.69 117.48 177.78 119.15 174.14 C120.02 172.22 120.14 169.2 120.14 153.38 C120.14 136.89
							 120.02 134.54 119.03 131.95 C117.61 128.24 113.41 124.48 109.52 123.36 C105.01 122.07 97.9 122.31 94.2
							 123.98 C87.59 126.88 85.86 130.04 85.12 140.72 C84.56 149.18 84.99 169.38 85.92 172.84 C88.14 181.8
							 99.94 186.06 111 181.98 ZM82.03 176.42 L82.21 170.37 L77.52 170.37 L72.89 170.37 L72.89 146.9 L72.89
							 123.43 L65.17 123.43 L57.44 123.43 L57.44 146.9 L57.44 170.31 L53 170.49 L48.49 170.68 L48.3 175.87
							 C48.18 178.71 48.24 181.43 48.43 181.92 C48.74 182.6 51.89 182.72 65.29 182.6 L81.84 182.41 L82.03 176.42
							 ZM145.96 182.11 C152.82 181.43 155.78 179.88 157.63 175.99 C158.87 173.46 158.99 172.16 158.99 164.19
							 C158.99 156.78 158.81 154.87 157.88 152.95 C156.21 149.49 153.37 148.07 146.95 147.33 L141.45 146.71
							 L141.45 135.1 L141.45 123.43 L133.73 123.43 L126.01 123.43 L126.01 153.07 L126.01 182.72 L133.3 182.72
							 C137.25 182.72 142.93 182.41 145.96 182.11 Z" class="st1"/>
			</g>
			<g id="shape11-16" v:mID="11" v:groupContext="shape" transform="translate(106.056,364.459) scale(1,-1)">
				<title>Sheet.11</title>
				<v:userDefs>
					<v:ud v:nameU="msvThemeColors" v:val="VT0(36):26"/>
					<v:ud v:nameU="msvThemeEffects" v:val="VT0(16):26"/>
				</v:userDefs>
				<path d="M0.99 237.2 C0.37 236.09 -0 207.68 0.62 202.12 C1.05 198.29 1.3 197.49 2.29 197.3 C4.94 196.75 5.13 198.23
							 5.13 217.44 C5.13 228.74 4.88 236.03 4.51 236.77 C3.77 238.07 1.73 238.32 0.99 237.2 Z" class="st1"/>
			</g>
			<g id="shape12-18" v:mID="12" v:groupContext="shape" transform="translate(147.627,366.065) scale(1,-1)">
				<title>Sheet.12</title>
				<v:userDefs>
					<v:ud v:nameU="msvThemeColors" v:val="VT0(36):26"/>
					<v:ud v:nameU="msvThemeEffects" v:val="VT0(16):26"/>
				</v:userDefs>
				<path d="M0 230.9 C-0 223.49 0 223.49 1.48 223.49 C4.01 223.49 4.63 225.03 4.63 231.03 C4.63 235.78 4.45 236.71 3.46
							 237.45 C2.78 237.94 1.73 238.32 1.11 238.32 C0.12 238.32 -0 237.64 0 230.9 Z" class="st1"/>
			</g>
		</g>
	</g>
</svg>
