<svg xmlns="http://www.w3.org/2000/svg" xmlns:xlink="http://www.w3.org/1999/xlink" xmlns:ev="http://www.w3.org/2001/xml-events" xmlns:v="http://schemas.microsoft.com/visio/2003/SVGExtensions/" width="11.6929in" height="8.26772in" viewBox="0 0 841.89 595.276" xml:space="preserve" color-interpolation-filters="sRGB" class="st6">
	<v:documentProperties v:langID="1033" v:metric="true" v:viewMarkup="false">
		<v:userDefs>
			<v:ud v:nameU="msvNoAutoConnect" v:val="VT0(0):26"/>
		</v:userDefs>
	</v:documentProperties>

	<style type="text/css">
	
		.st1 {marker-end:url(#mrkr5-8);stroke:#8c8c8c;stroke-linecap:round;stroke-linejoin:round;stroke-width:4.5}
		.st2 {fill:#8c8c8c;fill-opacity:1;stroke:#8c8c8c;stroke-opacity:1;stroke-width:0.64102564102564}
		.st3 {visibility:visible}
		.st4 {fill:#cdcdcd;fill-opacity:0.5;stroke:#cdcdcd;stroke-linecap:round;stroke-linejoin:round;stroke-opacity:0.5;stroke-width:6}
		.st5 {fill:url(#grad30-32);stroke:#0386bf;stroke-linecap:round;stroke-linejoin:round;stroke-width:6}
		.st6 {fill:none;fill-rule:evenodd;font-size:12px;overflow:visible;stroke-linecap:square;stroke-miterlimit:3}
	
	</style>

	<defs id="Patterns_And_Gradients">
		<linearGradient id="grad30-5" v:fillPattern="30" v:foreground="#f0f0f0" v:background="#ffffff" x1="0" y1="1" x2="0" y2="0">
			<stop offset="0" style="stop-color:#f0f0f0;stop-opacity:1"/>
			<stop offset="1" style="stop-color:#ffffff;stop-opacity:1"/>
		</linearGradient>
		<linearGradient id="grad30-32" v:fillPattern="30" v:foreground="#14a7f5" v:background="#31b0f7" x1="0" y1="1" x2="0" y2="0">
			<stop offset="0" style="stop-color:#14a7f5;stop-opacity:1"/>
			<stop offset="1" style="stop-color:#31b0f7;stop-opacity:1"/>
		</linearGradient>
	</defs>
	<defs id="Markers">
		<g id="lend5">
			<path d="M 2 1 L 0 0 L 2 -1 C 1.7 -0.4 1.7 0.4 2 1 " style="stroke:none"/>
		</g>
		<marker id="mrkr5-8" class="st2" v:arrowType="5" v:arrowSize="2" v:setback="2.73" refX="-2.73" orient="auto" markerUnits="strokeWidth" overflow="visible">
			<use xlink:href="#lend5" transform="scale(-1.56,-1.56) "/>
		</marker>
	</defs>
	<g v:mID="0" v:index="1" v:groupContext="foregroundPage">
		<v:userDefs>
			<v:ud v:nameU="msvThemeColors" v:val="VT0(36):26"/>
			<v:ud v:nameU="msvThemeEffects" v:val="VT0(16):26"/>
			<v:ud v:nameU="msvThemeOrder" v:val="VT0(0):26"/>
		</v:userDefs>
		<title>Page-1</title>
		<v:pageProperties v:drawingScale="0.0393701" v:pageScale="0.0393701" v:drawingUnits="24" v:shadowOffsetX="8.50394" v:shadowOffsetY="-8.50394"/>
		<v:layer v:name="Connector" v:index="0"/>
		<v:layer v:name="Flowchart" v:index="1"/>
		<g id="shape6-1" v:mID="6" v:groupContext="shape" v:layerMember="0" transform="translate(285.052,-485.249)">
			<title>Dynamic connector</title>
			<v:userDefs>
				<v:ud v:nameU="msvThemeColors" v:val="VT0(36):26"/>
				<v:ud v:nameU="msvThemeEffects" v:val="VT0(16):26"/>
			</v:userDefs>
			<path d="M0 588.2 L268 588.2" class="st1"/>
		</g>
		<g id="shape8-9" v:mID="8" v:groupContext="shape" v:layerMember="0" transform="translate(571.419,-465.383)">
			<title>Dynamic connector.8</title>
			<v:userDefs>
				<v:ud v:nameU="msvThemeColors" v:val="VT0(36):26"/>
				<v:ud v:nameU="msvThemeEffects" v:val="VT0(16):26"/>
			</v:userDefs>
			<path d="M0 595.3 L-81.77 640.5" class="st1"/>
		</g>
		<g id="shape10-15" v:mID="10" v:groupContext="shape" v:layerMember="0" transform="translate(571.241,-273.72)">
			<title>Dynamic connector.10</title>
			<v:userDefs>
				<v:ud v:nameU="msvThemeColors" v:val="VT0(36):26"/>
				<v:ud v:nameU="msvThemeEffects" v:val="VT0(16):26"/>
			</v:userDefs>
			<path d="M0 595.3 L-78.88 634.7" class="st1"/>
		</g>
		<g id="shape11-21" v:mID="11" v:groupContext="shape" v:layerMember="0" transform="translate(371.104,-168.772)">
			<title>Dynamic connector.11</title>
			<v:userDefs>
				<v:ud v:nameU="msvThemeColors" v:val="VT0(36):26"/>
				<v:ud v:nameU="msvThemeEffects" v:val="VT0(16):26"/>
			</v:userDefs>
			<path d="M0 595.3 L-78.15 636.3" class="st1"/>
		</g>
		<g id="shape1-27" v:mID="1" v:groupContext="shape" v:layerMember="0;1" transform="translate(159.449,-429.533)">
			<title>On-page reference</title>
			<v:userDefs>
				<v:ud v:nameU="visVersion" v:prompt="" v:val="VT0(14):26"/>
				<v:ud v:nameU="msvThemeColors" v:val="VT0(36):26"/>
				<v:ud v:nameU="msvThemeEffects" v:val="VT0(16):26"/>
			</v:userDefs>
			<g id="shadow1-28" v:groupContext="shadow" v:shadowOffsetX="1.44" v:shadowOffsetY="-1.44" v:shadowType="1" transform="matrix(1,0,0,1,1.44,1.44)" class="st3">
				<path d="M0 532.5 A62.8018 62.8 0 1 1 125.6 532.5 A62.8018 62.8 0 0 1 0 532.5 Z" class="st4"/>
			</g>
			<path d="M0 532.5 A62.8018 62.8 0 1 1 125.6 532.5 A62.8018 62.8 0 0 1 0 532.5 Z" class="st5"/>
		</g>
		<g id="shape2-33" v:mID="2" v:groupContext="shape" v:layerMember="0;1" transform="translate(565.341,-429.533)">
			<title>On-page reference.2</title>
			<v:userDefs>
				<v:ud v:nameU="visVersion" v:prompt="" v:val="VT0(14):26"/>
				<v:ud v:nameU="msvThemeColors" v:val="VT0(36):26"/>
				<v:ud v:nameU="msvThemeEffects" v:val="VT0(16):26"/>
			</v:userDefs>
			<g id="shadow2-34" v:groupContext="shadow" v:shadowOffsetX="1.44" v:shadowOffsetY="-1.44" v:shadowType="1" transform="matrix(1,0,0,1,1.44,1.44)" class="st3">
				<path d="M0 532.5 A62.8018 62.8 0 1 1 125.6 532.5 A62.8018 62.8 0 0 1 0 532.5 Z" class="st4"/>
			</g>
			<path d="M0 532.5 A62.8018 62.8 0 1 1 125.6 532.5 A62.8018 62.8 0 0 1 0 532.5 Z" class="st5"/>
		</g>
		<g id="shape4-38" v:mID="4" v:groupContext="shape" v:layerMember="0;1" transform="translate(565.341,-237.493)">
			<title>On-page reference.4</title>
			<v:userDefs>
				<v:ud v:nameU="visVersion" v:prompt="" v:val="VT0(14):26"/>
				<v:ud v:nameU="msvThemeColors" v:val="VT0(36):26"/>
				<v:ud v:nameU="msvThemeEffects" v:val="VT0(16):26"/>
			</v:userDefs>
			<g id="shadow4-39" v:groupContext="shadow" v:shadowOffsetX="1.44" v:shadowOffsetY="-1.44" v:shadowType="1" transform="matrix(1,0,0,1,1.44,1.44)" class="st3">
				<path d="M0 532.5 A62.8018 62.8 0 1 1 125.6 532.5 A62.8018 62.8 0 0 1 0 532.5 Z" class="st4"/>
			</g>
			<path d="M0 532.5 A62.8018 62.8 0 1 1 125.6 532.5 A62.8018 62.8 0 0 1 0 532.5 Z" class="st5"/>
		</g>
		<g id="shape3-43" v:mID="3" v:groupContext="shape" v:layerMember="0;1" transform="translate(362.451,-318.749)">
			<title>On-page reference.3</title>
			<v:userDefs>
				<v:ud v:nameU="visVersion" v:prompt="" v:val="VT0(14):26"/>
				<v:ud v:nameU="msvThemeColors" v:val="VT0(36):26"/>
				<v:ud v:nameU="msvThemeEffects" v:val="VT0(16):26"/>
			</v:userDefs>
			<g id="shadow3-44" v:groupContext="shadow" v:shadowOffsetX="1.44" v:shadowOffsetY="-1.44" v:shadowType="1" transform="matrix(1,0,0,1,1.44,1.44)" class="st3">
				<path d="M0 532.5 A62.8018 62.8 0 1 1 125.6 532.5 A62.8018 62.8 0 0 1 0 532.5 Z" class="st4"/>
			</g>
			<path d="M0 532.5 A62.8018 62.8 0 1 1 125.6 532.5 A62.8018 62.8 0 0 1 0 532.5 Z" class="st5"/>
		</g>
		<g id="shape5-48" v:mID="5" v:groupContext="shape" v:layerMember="0;1" transform="translate(362.451,-137.781)">
			<title>On-page reference.5</title>
			<v:userDefs>
				<v:ud v:nameU="visVersion" v:prompt="" v:val="VT0(14):26"/>
				<v:ud v:nameU="msvThemeColors" v:val="VT0(36):26"/>
				<v:ud v:nameU="msvThemeEffects" v:val="VT0(16):26"/>
			</v:userDefs>
			<g id="shadow5-49" v:groupContext="shadow" v:shadowOffsetX="1.44" v:shadowOffsetY="-1.44" v:shadowType="1" transform="matrix(1,0,0,1,1.44,1.44)" class="st3">
				<path d="M0 532.5 A62.8018 62.8 0 1 1 125.6 532.5 A62.8018 62.8 0 0 1 0 532.5 Z" class="st4"/>
			</g>
			<path d="M0 532.5 A62.8018 62.8 0 1 1 125.6 532.5 A62.8018 62.8 0 0 1 0 532.5 Z" class="st5"/>
		</g>
		<g id="shape12-53" v:mID="12" v:groupContext="shape" v:layerMember="0;1" transform="translate(159.449,-40.1386)">
			<title>On-page reference.12</title>
			<v:userDefs>
				<v:ud v:nameU="visVersion" v:prompt="" v:val="VT0(14):26"/>
				<v:ud v:nameU="msvThemeColors" v:val="VT0(36):26"/>
				<v:ud v:nameU="msvThemeEffects" v:val="VT0(16):26"/>
			</v:userDefs>
			<g id="shadow12-54" v:groupContext="shadow" v:shadowOffsetX="1.44" v:shadowOffsetY="-1.44" v:shadowType="1" transform="matrix(1,0,0,1,1.44,1.44)" class="st3">
				<path d="M0 532.5 A62.8018 62.8 0 1 1 125.6 532.5 A62.8018 62.8 0 0 1 0 532.5 Z" class="st4"/>
			</g>
			<path d="M0 532.5 A62.8018 62.8 0 1 1 125.6 532.5 A62.8018 62.8 0 0 1 0 532.5 Z" class="st5"/>
		</g>
		<g id="shape7-58" v:mID="7" v:groupContext="shape" v:layerMember="0" transform="translate(485.399,-363.483)">
			<title>Dynamic connector.7</title>
			<v:userDefs>
				<v:ud v:nameU="msvThemeColors" v:val="VT0(36):26"/>
				<v:ud v:nameU="msvThemeEffects" v:val="VT0(16):26"/>
			</v:userDefs>
			<path d="M0 595.3 L73.79 628.8" class="st1"/>
		</g>
	</g>
</svg>
